%TF.GenerationSoftware,KiCad,Pcbnew,(6.0.4)*%
%TF.CreationDate,2023-01-05T12:04:55+08:00*%
%TF.ProjectId,FOC_Power,464f435f-506f-4776-9572-2e6b69636164,rev?*%
%TF.SameCoordinates,Original*%
%TF.FileFunction,Paste,Bot*%
%TF.FilePolarity,Positive*%
%FSLAX46Y46*%
G04 Gerber Fmt 4.6, Leading zero omitted, Abs format (unit mm)*
G04 Created by KiCad (PCBNEW (6.0.4)) date 2023-01-05 12:04:55*
%MOMM*%
%LPD*%
G01*
G04 APERTURE LIST*
G04 Aperture macros list*
%AMRoundRect*
0 Rectangle with rounded corners*
0 $1 Rounding radius*
0 $2 $3 $4 $5 $6 $7 $8 $9 X,Y pos of 4 corners*
0 Add a 4 corners polygon primitive as box body*
4,1,4,$2,$3,$4,$5,$6,$7,$8,$9,$2,$3,0*
0 Add four circle primitives for the rounded corners*
1,1,$1+$1,$2,$3*
1,1,$1+$1,$4,$5*
1,1,$1+$1,$6,$7*
1,1,$1+$1,$8,$9*
0 Add four rect primitives between the rounded corners*
20,1,$1+$1,$2,$3,$4,$5,0*
20,1,$1+$1,$4,$5,$6,$7,0*
20,1,$1+$1,$6,$7,$8,$9,0*
20,1,$1+$1,$8,$9,$2,$3,0*%
G04 Aperture macros list end*
%ADD10RoundRect,0.250000X0.475000X-0.250000X0.475000X0.250000X-0.475000X0.250000X-0.475000X-0.250000X0*%
%ADD11RoundRect,0.147500X-0.172500X0.147500X-0.172500X-0.147500X0.172500X-0.147500X0.172500X0.147500X0*%
%ADD12RoundRect,0.140000X-0.140000X-0.170000X0.140000X-0.170000X0.140000X0.170000X-0.140000X0.170000X0*%
%ADD13RoundRect,0.225000X0.225000X0.250000X-0.225000X0.250000X-0.225000X-0.250000X0.225000X-0.250000X0*%
%ADD14RoundRect,0.140000X0.170000X-0.140000X0.170000X0.140000X-0.170000X0.140000X-0.170000X-0.140000X0*%
%ADD15RoundRect,0.140000X0.140000X0.170000X-0.140000X0.170000X-0.140000X-0.170000X0.140000X-0.170000X0*%
%ADD16R,0.540000X0.540000*%
%ADD17R,0.300000X0.300000*%
%ADD18R,0.900000X0.300000*%
%ADD19R,0.300000X0.900000*%
%ADD20RoundRect,0.125000X-0.125000X-0.375000X0.125000X-0.375000X0.125000X0.375000X-0.125000X0.375000X0*%
%ADD21RoundRect,0.250000X-0.350000X-0.600000X0.350000X-0.600000X0.350000X0.600000X-0.350000X0.600000X0*%
%ADD22RoundRect,0.135000X0.135000X0.185000X-0.135000X0.185000X-0.135000X-0.185000X0.135000X-0.185000X0*%
%ADD23RoundRect,0.150000X-0.150000X0.512500X-0.150000X-0.512500X0.150000X-0.512500X0.150000X0.512500X0*%
%ADD24RoundRect,0.250000X0.362500X1.425000X-0.362500X1.425000X-0.362500X-1.425000X0.362500X-1.425000X0*%
%ADD25RoundRect,0.140000X-0.170000X0.140000X-0.170000X-0.140000X0.170000X-0.140000X0.170000X0.140000X0*%
%ADD26R,0.800000X2.000000*%
%ADD27R,1.160000X0.600000*%
%ADD28R,1.160000X0.300000*%
%ADD29RoundRect,0.135000X-0.135000X-0.185000X0.135000X-0.185000X0.135000X0.185000X-0.135000X0.185000X0*%
G04 APERTURE END LIST*
D10*
%TO.C,C42*%
X97425000Y-59465000D03*
X97425000Y-57565000D03*
%TD*%
%TO.C,C63*%
X83055000Y-59475000D03*
X83055000Y-57575000D03*
%TD*%
D11*
%TO.C,D2*%
X75485000Y-37817500D03*
X75485000Y-38787500D03*
%TD*%
D12*
%TO.C,C28*%
X88945000Y-30847500D03*
X89905000Y-30847500D03*
%TD*%
D13*
%TO.C,C39*%
X80990000Y-52045000D03*
X79440000Y-52045000D03*
%TD*%
D14*
%TO.C,C33*%
X86395000Y-33895000D03*
X86395000Y-32935000D03*
%TD*%
D10*
%TO.C,C57*%
X42875000Y-59445000D03*
X42875000Y-57545000D03*
%TD*%
D13*
%TO.C,C54*%
X53230000Y-52045000D03*
X51680000Y-52045000D03*
%TD*%
D10*
%TO.C,C74*%
X53125000Y-59445000D03*
X53125000Y-57545000D03*
%TD*%
%TO.C,C61*%
X80925000Y-59475000D03*
X80925000Y-57575000D03*
%TD*%
%TO.C,C75*%
X59345000Y-59445000D03*
X59345000Y-57545000D03*
%TD*%
D14*
%TO.C,C24*%
X93255000Y-33907500D03*
X93255000Y-32947500D03*
%TD*%
D10*
%TO.C,C66*%
X74845000Y-59475000D03*
X74845000Y-57575000D03*
%TD*%
D15*
%TO.C,C11*%
X66655000Y-39535000D03*
X65695000Y-39535000D03*
%TD*%
D16*
%TO.C,U4*%
X41245000Y-39015000D03*
X41245000Y-39915000D03*
X40345000Y-39015000D03*
X40345000Y-39915000D03*
D17*
X39545000Y-40715000D03*
D18*
X39245000Y-40215000D03*
X39245000Y-39715000D03*
X39245000Y-39215000D03*
X39245000Y-38715000D03*
D17*
X39545000Y-38215000D03*
D19*
X40045000Y-37915000D03*
X40545000Y-37915000D03*
X41045000Y-37915000D03*
X41545000Y-37915000D03*
D17*
X42045000Y-38215000D03*
D18*
X42345000Y-38715000D03*
X42345000Y-39215000D03*
X42345000Y-39715000D03*
X42345000Y-40215000D03*
D17*
X42045000Y-40715000D03*
D19*
X41545000Y-41015000D03*
X41045000Y-41015000D03*
X40545000Y-41015000D03*
X40045000Y-41015000D03*
%TD*%
D10*
%TO.C,C69*%
X57305000Y-59445000D03*
X57305000Y-57545000D03*
%TD*%
%TO.C,C59*%
X44895000Y-59445000D03*
X44895000Y-57545000D03*
%TD*%
D20*
%TO.C,J8*%
X86705000Y-27630724D03*
X87505000Y-27630724D03*
D21*
X85405000Y-25680724D03*
X88805000Y-25680724D03*
%TD*%
D14*
%TO.C,C10*%
X73785000Y-40775000D03*
X73785000Y-39815000D03*
%TD*%
D10*
%TO.C,C68*%
X47025000Y-59445000D03*
X47025000Y-57545000D03*
%TD*%
D22*
%TO.C,R27*%
X57165000Y-44165000D03*
X56145000Y-44165000D03*
%TD*%
D23*
%TO.C,U6*%
X87685000Y-32320000D03*
X88635000Y-32320000D03*
X89585000Y-32320000D03*
X89585000Y-34595000D03*
X87685000Y-34595000D03*
%TD*%
D24*
%TO.C,R5*%
X80837500Y-54775000D03*
X74912500Y-54775000D03*
%TD*%
D10*
%TO.C,C58*%
X61395000Y-59445000D03*
X61395000Y-57545000D03*
%TD*%
D20*
%TO.C,J9*%
X78970000Y-27630724D03*
X79770000Y-27630724D03*
X80570000Y-27630724D03*
X81370000Y-27630724D03*
D21*
X77670000Y-25680724D03*
X82670000Y-25680724D03*
%TD*%
D10*
%TO.C,C67*%
X85085000Y-59475000D03*
X85085000Y-57575000D03*
%TD*%
D25*
%TO.C,C15*%
X65645000Y-45015000D03*
X65645000Y-45975000D03*
%TD*%
D12*
%TO.C,C12*%
X65945000Y-47485000D03*
X66905000Y-47485000D03*
%TD*%
D10*
%TO.C,C65*%
X89155000Y-59475000D03*
X89155000Y-57575000D03*
%TD*%
%TO.C,C56*%
X38825000Y-59445000D03*
X38825000Y-57545000D03*
%TD*%
%TO.C,C62*%
X76865000Y-59475000D03*
X76865000Y-57575000D03*
%TD*%
D14*
%TO.C,C23*%
X92255000Y-33897500D03*
X92255000Y-32937500D03*
%TD*%
%TO.C,C17*%
X72765000Y-40775000D03*
X72765000Y-39815000D03*
%TD*%
D10*
%TO.C,C40*%
X93335000Y-59475000D03*
X93335000Y-57575000D03*
%TD*%
%TO.C,C43*%
X95375000Y-59475000D03*
X95375000Y-57575000D03*
%TD*%
D26*
%TO.C,S1*%
X59150660Y-31855000D03*
X63350660Y-31855000D03*
%TD*%
D10*
%TO.C,C71*%
X55265000Y-59445000D03*
X55265000Y-57545000D03*
%TD*%
D27*
%TO.C,J2*%
X35410000Y-42255000D03*
X35410000Y-41455000D03*
D28*
X35410000Y-40305000D03*
X35410000Y-39305000D03*
X35410000Y-38805000D03*
X35410000Y-37805000D03*
D27*
X35410000Y-36655000D03*
X35410000Y-35855000D03*
X35410000Y-35855000D03*
X35410000Y-36655000D03*
D28*
X35410000Y-37305000D03*
X35410000Y-38305000D03*
X35410000Y-39805000D03*
X35410000Y-40805000D03*
D27*
X35410000Y-41455000D03*
X35410000Y-42255000D03*
%TD*%
D24*
%TO.C,R34*%
X61315000Y-54785000D03*
X55390000Y-54785000D03*
%TD*%
D13*
%TO.C,C55*%
X44990000Y-52045000D03*
X43440000Y-52045000D03*
%TD*%
%TO.C,C38*%
X89240000Y-52045000D03*
X87690000Y-52045000D03*
%TD*%
D29*
%TO.C,R2*%
X92165000Y-43155000D03*
X93185000Y-43155000D03*
%TD*%
D20*
%TO.C,J7*%
X70435000Y-27630724D03*
X71235000Y-27630724D03*
X72035000Y-27630724D03*
X72835000Y-27630724D03*
X73635000Y-27630724D03*
D21*
X74935000Y-25680724D03*
X69135000Y-25680724D03*
%TD*%
D10*
%TO.C,C60*%
X78895000Y-59475000D03*
X78895000Y-57575000D03*
%TD*%
D12*
%TO.C,C16*%
X72205000Y-47445000D03*
X73165000Y-47445000D03*
%TD*%
D26*
%TO.C,S3*%
X47410660Y-33515000D03*
X51610660Y-33515000D03*
%TD*%
D25*
%TO.C,C14*%
X66665000Y-45015000D03*
X66665000Y-45975000D03*
%TD*%
D12*
%TO.C,C13*%
X72205000Y-46415000D03*
X73165000Y-46415000D03*
%TD*%
D13*
%TO.C,C37*%
X97490000Y-52045000D03*
X95940000Y-52045000D03*
%TD*%
D24*
%TO.C,R7*%
X97337500Y-54775000D03*
X91412500Y-54775000D03*
%TD*%
D26*
%TO.C,S*%
X47416320Y-30185000D03*
X51616320Y-30185000D03*
%TD*%
D24*
%TO.C,R33*%
X53075000Y-54785000D03*
X47150000Y-54785000D03*
%TD*%
%TO.C,R6*%
X89087500Y-54775000D03*
X83162500Y-54775000D03*
%TD*%
D10*
%TO.C,C41*%
X91295000Y-59475000D03*
X91295000Y-57575000D03*
%TD*%
%TO.C,C72*%
X51095000Y-59445000D03*
X51095000Y-57545000D03*
%TD*%
%TO.C,C64*%
X87115000Y-59475000D03*
X87115000Y-57575000D03*
%TD*%
%TO.C,C73*%
X49065000Y-59445000D03*
X49065000Y-57545000D03*
%TD*%
D29*
%TO.C,R15*%
X95915000Y-30795000D03*
X96935000Y-30795000D03*
%TD*%
D23*
%TO.C,U3*%
X94535000Y-32250000D03*
X95485000Y-32250000D03*
X96435000Y-32250000D03*
X96435000Y-34525000D03*
X95485000Y-34525000D03*
X94535000Y-34525000D03*
%TD*%
D29*
%TO.C,R28*%
X56145000Y-43145000D03*
X57165000Y-43145000D03*
%TD*%
D15*
%TO.C,C26*%
X94995000Y-30805000D03*
X94035000Y-30805000D03*
%TD*%
D22*
%TO.C,R1*%
X93185000Y-44175000D03*
X92165000Y-44175000D03*
%TD*%
D10*
%TO.C,C70*%
X40855000Y-59445000D03*
X40855000Y-57545000D03*
%TD*%
D13*
%TO.C,C53*%
X61460000Y-52055000D03*
X59910000Y-52055000D03*
%TD*%
D24*
%TO.C,R32*%
X44835000Y-54785000D03*
X38910000Y-54785000D03*
%TD*%
M02*
