%FSLAX45Y45*%
G04 Gerber Fmt 4.5, Leading zero omitted, Abs format (unit mm)*
G04 Created by KiCad (PCBNEW (6.0.4)) date 2023-01-05 12:05:05*
%MOMM*%
%LPD*%
G01*
G04 APERTURE LIST*
%TA.AperFunction,Profile*%
%ADD10C,0.100000*%
%TD*%
%ADD11C,0.200000*%
%ADD12C,0.060000*%
G04 APERTURE END LIST*
D10*
X8241500Y-6812500D02*
X9296070Y-6812500D01*
X10217500Y-2422500D02*
X3351500Y-2422500D01*
X2851500Y-6812500D02*
G75*
G03*
X3351500Y-7312500I500000J0D01*
G01*
X10716500Y-6812491D02*
X10716500Y-2924500D01*
X4142929Y-7312500D02*
G75*
G03*
X4642929Y-6812929I488J499512D01*
G01*
X3351500Y-2422500D02*
G75*
G03*
X2851499Y-2923500I0J-500002D01*
G01*
X4642929Y-6812929D02*
X5700500Y-6812929D01*
X2851499Y-2923500D02*
X2851499Y-6812500D01*
X9296070Y-6812500D02*
G75*
G03*
X9796071Y-7312500I499940J-60D01*
G01*
X10218500Y-7312493D02*
G75*
G03*
X10716500Y-6812491I-130J498134D01*
G01*
X7741500Y-7312930D02*
G75*
G03*
X8241500Y-6812928I60J499940D01*
G01*
X10716501Y-2924500D02*
G75*
G03*
X10217500Y-2422500I-499001J2990D01*
G01*
X4142929Y-7312500D02*
X3351500Y-7312500D01*
X5700501Y-6812929D02*
G75*
G03*
X6200501Y-7312929I499939J-61D01*
G01*
X10218500Y-7312500D02*
X9796071Y-7312500D01*
X6200501Y-7312929D02*
X7741500Y-7312929D01*
D11*
D12*
X3405000Y-3586500D02*
X3465000Y-3646500D01*
X3465000Y-3586500D02*
X3405000Y-3646500D01*
X3405000Y-4164500D02*
X3465000Y-4224500D01*
X3465000Y-4164500D02*
X3405000Y-4224500D01*
D11*
X3104117Y-7628405D02*
X3104117Y-7428405D01*
X3151736Y-7428405D01*
X3180308Y-7437929D01*
X3199355Y-7456977D01*
X3208879Y-7476024D01*
X3218403Y-7514119D01*
X3218403Y-7542691D01*
X3208879Y-7580786D01*
X3199355Y-7599834D01*
X3180308Y-7618881D01*
X3151736Y-7628405D01*
X3104117Y-7628405D01*
X3304117Y-7628405D02*
X3304117Y-7495072D01*
X3304117Y-7533167D02*
X3313641Y-7514119D01*
X3323165Y-7504596D01*
X3342212Y-7495072D01*
X3361260Y-7495072D01*
X3427927Y-7628405D02*
X3427927Y-7495072D01*
X3427927Y-7428405D02*
X3418403Y-7437929D01*
X3427927Y-7447453D01*
X3437450Y-7437929D01*
X3427927Y-7428405D01*
X3427927Y-7447453D01*
X3551736Y-7628405D02*
X3532688Y-7618881D01*
X3523165Y-7599834D01*
X3523165Y-7428405D01*
X3656498Y-7628405D02*
X3637450Y-7618881D01*
X3627927Y-7599834D01*
X3627927Y-7428405D01*
X3885069Y-7628405D02*
X3885069Y-7428405D01*
X3951736Y-7571262D01*
X4018403Y-7428405D01*
X4018403Y-7628405D01*
X4199355Y-7628405D02*
X4199355Y-7523643D01*
X4189831Y-7504596D01*
X4170784Y-7495072D01*
X4132688Y-7495072D01*
X4113641Y-7504596D01*
X4199355Y-7618881D02*
X4180308Y-7628405D01*
X4132688Y-7628405D01*
X4113641Y-7618881D01*
X4104117Y-7599834D01*
X4104117Y-7580786D01*
X4113641Y-7561738D01*
X4132688Y-7552215D01*
X4180308Y-7552215D01*
X4199355Y-7542691D01*
X4294593Y-7495072D02*
X4294593Y-7695072D01*
X4294593Y-7504596D02*
X4313641Y-7495072D01*
X4351736Y-7495072D01*
X4370784Y-7504596D01*
X4380308Y-7514119D01*
X4389831Y-7533167D01*
X4389831Y-7590310D01*
X4380308Y-7609357D01*
X4370784Y-7618881D01*
X4351736Y-7628405D01*
X4313641Y-7628405D01*
X4294593Y-7618881D01*
X4475546Y-7609357D02*
X4485070Y-7618881D01*
X4475546Y-7628405D01*
X4466022Y-7618881D01*
X4475546Y-7609357D01*
X4475546Y-7628405D01*
X4475546Y-7504596D02*
X4485070Y-7514119D01*
X4475546Y-7523643D01*
X4466022Y-7514119D01*
X4475546Y-7504596D01*
X4475546Y-7523643D01*
D12*
X2786498Y-7927929D02*
X2846498Y-7987929D01*
X2846498Y-7927929D02*
X2786498Y-7987929D01*
D11*
X3142212Y-7848405D02*
X3161260Y-7848405D01*
X3180308Y-7857929D01*
X3189831Y-7867453D01*
X3199355Y-7886500D01*
X3208879Y-7924596D01*
X3208879Y-7972215D01*
X3199355Y-8010310D01*
X3189831Y-8029357D01*
X3180308Y-8038881D01*
X3161260Y-8048405D01*
X3142212Y-8048405D01*
X3123165Y-8038881D01*
X3113641Y-8029357D01*
X3104117Y-8010310D01*
X3094593Y-7972215D01*
X3094593Y-7924596D01*
X3104117Y-7886500D01*
X3113641Y-7867453D01*
X3123165Y-7857929D01*
X3142212Y-7848405D01*
X3294593Y-8029357D02*
X3304117Y-8038881D01*
X3294593Y-8048405D01*
X3285069Y-8038881D01*
X3294593Y-8029357D01*
X3294593Y-8048405D01*
X3475546Y-7848405D02*
X3437450Y-7848405D01*
X3418403Y-7857929D01*
X3408879Y-7867453D01*
X3389831Y-7896024D01*
X3380308Y-7934119D01*
X3380308Y-8010310D01*
X3389831Y-8029357D01*
X3399355Y-8038881D01*
X3418403Y-8048405D01*
X3456498Y-8048405D01*
X3475546Y-8038881D01*
X3485069Y-8029357D01*
X3494593Y-8010310D01*
X3494593Y-7962691D01*
X3485069Y-7943643D01*
X3475546Y-7934119D01*
X3456498Y-7924596D01*
X3418403Y-7924596D01*
X3399355Y-7934119D01*
X3389831Y-7943643D01*
X3380308Y-7962691D01*
X3618403Y-7848405D02*
X3637450Y-7848405D01*
X3656498Y-7857929D01*
X3666022Y-7867453D01*
X3675546Y-7886500D01*
X3685069Y-7924596D01*
X3685069Y-7972215D01*
X3675546Y-8010310D01*
X3666022Y-8029357D01*
X3656498Y-8038881D01*
X3637450Y-8048405D01*
X3618403Y-8048405D01*
X3599355Y-8038881D01*
X3589831Y-8029357D01*
X3580308Y-8010310D01*
X3570784Y-7972215D01*
X3570784Y-7924596D01*
X3580308Y-7886500D01*
X3589831Y-7867453D01*
X3599355Y-7857929D01*
X3618403Y-7848405D01*
X3808879Y-7848405D02*
X3827927Y-7848405D01*
X3846974Y-7857929D01*
X3856498Y-7867453D01*
X3866022Y-7886500D01*
X3875546Y-7924596D01*
X3875546Y-7972215D01*
X3866022Y-8010310D01*
X3856498Y-8029357D01*
X3846974Y-8038881D01*
X3827927Y-8048405D01*
X3808879Y-8048405D01*
X3789831Y-8038881D01*
X3780308Y-8029357D01*
X3770784Y-8010310D01*
X3761260Y-7972215D01*
X3761260Y-7924596D01*
X3770784Y-7886500D01*
X3780308Y-7867453D01*
X3789831Y-7857929D01*
X3808879Y-7848405D01*
X3961260Y-8048405D02*
X3961260Y-7915072D01*
X3961260Y-7934119D02*
X3970784Y-7924596D01*
X3989831Y-7915072D01*
X4018403Y-7915072D01*
X4037450Y-7924596D01*
X4046974Y-7943643D01*
X4046974Y-8048405D01*
X4046974Y-7943643D02*
X4056498Y-7924596D01*
X4075546Y-7915072D01*
X4104117Y-7915072D01*
X4123165Y-7924596D01*
X4132688Y-7943643D01*
X4132688Y-8048405D01*
X4227927Y-8048405D02*
X4227927Y-7915072D01*
X4227927Y-7934119D02*
X4237450Y-7924596D01*
X4256498Y-7915072D01*
X4285070Y-7915072D01*
X4304117Y-7924596D01*
X4313641Y-7943643D01*
X4313641Y-8048405D01*
X4313641Y-7943643D02*
X4323165Y-7924596D01*
X4342212Y-7915072D01*
X4370784Y-7915072D01*
X4389831Y-7924596D01*
X4399355Y-7943643D01*
X4399355Y-8048405D01*
X4789831Y-7838881D02*
X4618403Y-8096024D01*
X5046974Y-7848405D02*
X5066022Y-7848405D01*
X5085070Y-7857929D01*
X5094593Y-7867453D01*
X5104117Y-7886500D01*
X5113641Y-7924596D01*
X5113641Y-7972215D01*
X5104117Y-8010310D01*
X5094593Y-8029357D01*
X5085070Y-8038881D01*
X5066022Y-8048405D01*
X5046974Y-8048405D01*
X5027927Y-8038881D01*
X5018403Y-8029357D01*
X5008879Y-8010310D01*
X4999355Y-7972215D01*
X4999355Y-7924596D01*
X5008879Y-7886500D01*
X5018403Y-7867453D01*
X5027927Y-7857929D01*
X5046974Y-7848405D01*
X5199355Y-8029357D02*
X5208879Y-8038881D01*
X5199355Y-8048405D01*
X5189831Y-8038881D01*
X5199355Y-8029357D01*
X5199355Y-8048405D01*
X5332689Y-7848405D02*
X5351736Y-7848405D01*
X5370784Y-7857929D01*
X5380308Y-7867453D01*
X5389831Y-7886500D01*
X5399355Y-7924596D01*
X5399355Y-7972215D01*
X5389831Y-8010310D01*
X5380308Y-8029357D01*
X5370784Y-8038881D01*
X5351736Y-8048405D01*
X5332689Y-8048405D01*
X5313641Y-8038881D01*
X5304117Y-8029357D01*
X5294593Y-8010310D01*
X5285070Y-7972215D01*
X5285070Y-7924596D01*
X5294593Y-7886500D01*
X5304117Y-7867453D01*
X5313641Y-7857929D01*
X5332689Y-7848405D01*
X5475546Y-7867453D02*
X5485070Y-7857929D01*
X5504117Y-7848405D01*
X5551736Y-7848405D01*
X5570784Y-7857929D01*
X5580308Y-7867453D01*
X5589831Y-7886500D01*
X5589831Y-7905548D01*
X5580308Y-7934119D01*
X5466022Y-8048405D01*
X5589831Y-8048405D01*
X5656498Y-7848405D02*
X5780308Y-7848405D01*
X5713641Y-7924596D01*
X5742212Y-7924596D01*
X5761260Y-7934119D01*
X5770784Y-7943643D01*
X5780308Y-7962691D01*
X5780308Y-8010310D01*
X5770784Y-8029357D01*
X5761260Y-8038881D01*
X5742212Y-8048405D01*
X5685069Y-8048405D01*
X5666022Y-8038881D01*
X5656498Y-8029357D01*
X5951736Y-7848405D02*
X5913641Y-7848405D01*
X5894593Y-7857929D01*
X5885069Y-7867453D01*
X5866022Y-7896024D01*
X5856498Y-7934119D01*
X5856498Y-8010310D01*
X5866022Y-8029357D01*
X5875546Y-8038881D01*
X5894593Y-8048405D01*
X5932688Y-8048405D01*
X5951736Y-8038881D01*
X5961260Y-8029357D01*
X5970784Y-8010310D01*
X5970784Y-7962691D01*
X5961260Y-7943643D01*
X5951736Y-7934119D01*
X5932688Y-7924596D01*
X5894593Y-7924596D01*
X5875546Y-7934119D01*
X5866022Y-7943643D01*
X5856498Y-7962691D01*
X6046974Y-7848405D02*
X6046974Y-7886500D01*
X6123165Y-7848405D02*
X6123165Y-7886500D01*
X6418403Y-8124596D02*
X6408879Y-8115072D01*
X6389831Y-8086500D01*
X6380308Y-8067453D01*
X6370784Y-8038881D01*
X6361260Y-7991262D01*
X6361260Y-7953167D01*
X6370784Y-7905548D01*
X6380308Y-7876977D01*
X6389831Y-7857929D01*
X6408879Y-7829357D01*
X6418403Y-7819834D01*
X6485069Y-7867453D02*
X6494593Y-7857929D01*
X6513641Y-7848405D01*
X6561260Y-7848405D01*
X6580308Y-7857929D01*
X6589831Y-7867453D01*
X6599355Y-7886500D01*
X6599355Y-7905548D01*
X6589831Y-7934119D01*
X6475546Y-8048405D01*
X6599355Y-8048405D01*
X6837450Y-8048405D02*
X6837450Y-7848405D01*
X6923165Y-8048405D02*
X6923165Y-7943643D01*
X6913641Y-7924596D01*
X6894593Y-7915072D01*
X6866022Y-7915072D01*
X6846974Y-7924596D01*
X6837450Y-7934119D01*
X7046974Y-8048405D02*
X7027927Y-8038881D01*
X7018403Y-8029357D01*
X7008879Y-8010310D01*
X7008879Y-7953167D01*
X7018403Y-7934119D01*
X7027927Y-7924596D01*
X7046974Y-7915072D01*
X7075546Y-7915072D01*
X7094593Y-7924596D01*
X7104117Y-7934119D01*
X7113641Y-7953167D01*
X7113641Y-8010310D01*
X7104117Y-8029357D01*
X7094593Y-8038881D01*
X7075546Y-8048405D01*
X7046974Y-8048405D01*
X7227927Y-8048405D02*
X7208879Y-8038881D01*
X7199355Y-8019834D01*
X7199355Y-7848405D01*
X7380308Y-8038881D02*
X7361260Y-8048405D01*
X7323165Y-8048405D01*
X7304117Y-8038881D01*
X7294593Y-8019834D01*
X7294593Y-7943643D01*
X7304117Y-7924596D01*
X7323165Y-7915072D01*
X7361260Y-7915072D01*
X7380308Y-7924596D01*
X7389831Y-7943643D01*
X7389831Y-7962691D01*
X7294593Y-7981738D01*
X7466022Y-8038881D02*
X7485069Y-8048405D01*
X7523165Y-8048405D01*
X7542212Y-8038881D01*
X7551736Y-8019834D01*
X7551736Y-8010310D01*
X7542212Y-7991262D01*
X7523165Y-7981738D01*
X7494593Y-7981738D01*
X7475546Y-7972215D01*
X7466022Y-7953167D01*
X7466022Y-7943643D01*
X7475546Y-7924596D01*
X7494593Y-7915072D01*
X7523165Y-7915072D01*
X7542212Y-7924596D01*
X7618403Y-8124596D02*
X7627927Y-8115072D01*
X7646974Y-8086500D01*
X7656498Y-8067453D01*
X7666022Y-8038881D01*
X7675546Y-7991262D01*
X7675546Y-7953167D01*
X7666022Y-7905548D01*
X7656498Y-7876977D01*
X7646974Y-7857929D01*
X7627927Y-7829357D01*
X7618403Y-7819834D01*
X7980308Y-8124596D02*
X7970784Y-8115072D01*
X7951736Y-8086500D01*
X7942212Y-8067453D01*
X7932688Y-8038881D01*
X7923165Y-7991262D01*
X7923165Y-7953167D01*
X7932688Y-7905548D01*
X7942212Y-7876977D01*
X7951736Y-7857929D01*
X7970784Y-7829357D01*
X7980308Y-7819834D01*
X8056498Y-7915072D02*
X8056498Y-8048405D01*
X8056498Y-7934119D02*
X8066022Y-7924596D01*
X8085069Y-7915072D01*
X8113641Y-7915072D01*
X8132688Y-7924596D01*
X8142212Y-7943643D01*
X8142212Y-8048405D01*
X8266022Y-8048405D02*
X8246974Y-8038881D01*
X8237450Y-8029357D01*
X8227927Y-8010310D01*
X8227927Y-7953167D01*
X8237450Y-7934119D01*
X8246974Y-7924596D01*
X8266022Y-7915072D01*
X8294593Y-7915072D01*
X8313641Y-7924596D01*
X8323165Y-7934119D01*
X8332688Y-7953167D01*
X8332688Y-8010310D01*
X8323165Y-8029357D01*
X8313641Y-8038881D01*
X8294593Y-8048405D01*
X8266022Y-8048405D01*
X8389831Y-7915072D02*
X8466022Y-7915072D01*
X8418403Y-7848405D02*
X8418403Y-8019834D01*
X8427927Y-8038881D01*
X8446974Y-8048405D01*
X8466022Y-8048405D01*
X8685070Y-7915072D02*
X8685070Y-8115072D01*
X8685070Y-7924596D02*
X8704117Y-7915072D01*
X8742212Y-7915072D01*
X8761260Y-7924596D01*
X8770784Y-7934119D01*
X8780308Y-7953167D01*
X8780308Y-8010310D01*
X8770784Y-8029357D01*
X8761260Y-8038881D01*
X8742212Y-8048405D01*
X8704117Y-8048405D01*
X8685070Y-8038881D01*
X8894593Y-8048405D02*
X8875546Y-8038881D01*
X8866022Y-8019834D01*
X8866022Y-7848405D01*
X9056498Y-8048405D02*
X9056498Y-7943643D01*
X9046974Y-7924596D01*
X9027927Y-7915072D01*
X8989831Y-7915072D01*
X8970784Y-7924596D01*
X9056498Y-8038881D02*
X9037450Y-8048405D01*
X8989831Y-8048405D01*
X8970784Y-8038881D01*
X8961260Y-8019834D01*
X8961260Y-8000786D01*
X8970784Y-7981738D01*
X8989831Y-7972215D01*
X9037450Y-7972215D01*
X9056498Y-7962691D01*
X9123165Y-7915072D02*
X9199355Y-7915072D01*
X9151736Y-7848405D02*
X9151736Y-8019834D01*
X9161260Y-8038881D01*
X9180308Y-8048405D01*
X9199355Y-8048405D01*
X9342212Y-8038881D02*
X9323165Y-8048405D01*
X9285070Y-8048405D01*
X9266022Y-8038881D01*
X9256498Y-8019834D01*
X9256498Y-7943643D01*
X9266022Y-7924596D01*
X9285070Y-7915072D01*
X9323165Y-7915072D01*
X9342212Y-7924596D01*
X9351736Y-7943643D01*
X9351736Y-7962691D01*
X9256498Y-7981738D01*
X9523165Y-8048405D02*
X9523165Y-7848405D01*
X9523165Y-8038881D02*
X9504117Y-8048405D01*
X9466022Y-8048405D01*
X9446974Y-8038881D01*
X9437450Y-8029357D01*
X9427927Y-8010310D01*
X9427927Y-7953167D01*
X9437450Y-7934119D01*
X9446974Y-7924596D01*
X9466022Y-7915072D01*
X9504117Y-7915072D01*
X9523165Y-7924596D01*
X9599355Y-8124596D02*
X9608879Y-8115072D01*
X9627927Y-8086500D01*
X9637450Y-8067453D01*
X9646974Y-8038881D01*
X9656498Y-7991262D01*
X9656498Y-7953167D01*
X9646974Y-7905548D01*
X9637450Y-7876977D01*
X9627927Y-7857929D01*
X9608879Y-7829357D01*
X9599355Y-7819834D01*
M02*
