M48
; DRILL file {KiCad (6.0.4)} date Thu Jan  5 12:05:04 2023
; FORMAT={-:-/ absolute / inch / decimal}
; #@! TF.CreationDate,2023-01-05T12:05:04+08:00
; #@! TF.GenerationSoftware,Kicad,Pcbnew,(6.0.4)
; #@! TF.FileFunction,Plated,1,4,PTH
FMAT,2
INCH
; #@! TA.AperFunction,Plated,PTH,ComponentDrill
T1C0.0080
; #@! TA.AperFunction,Plated,PTH,ViaDrill
T2C0.0098
; #@! TA.AperFunction,Plated,PTH,ViaDrill
T3C0.0118
; #@! TA.AperFunction,Plated,PTH,ViaDrill
T4C0.0138
; #@! TA.AperFunction,Plated,PTH,ComponentDrill
T5C0.0236
; #@! TA.AperFunction,Plated,PTH,ComponentDrill
T6C0.0591
; #@! TA.AperFunction,Plated,PTH,ComponentDrill
T7C0.1260
%
G90
G05
T1
X1.9614Y-1.6862
X1.9614Y-1.7402
X2.0063Y-1.6413
X2.0063Y-1.6862
X2.0063Y-1.7402
X2.0063Y-1.785
X2.0602Y-1.6413
X2.0602Y-1.6862
X2.0602Y-1.7402
X2.0602Y-1.785
X2.1051Y-1.6862
X2.1051Y-1.7402
X3.3791Y-1.6843
X3.3791Y-1.7382
X3.424Y-1.6394
X3.424Y-1.6843
X3.424Y-1.7382
X3.424Y-1.7831
X3.478Y-1.6394
X3.478Y-1.6843
X3.478Y-1.7382
X3.478Y-1.7831
X3.5228Y-1.6843
X3.5228Y-1.7382
T2
X1.3545Y-1.5278
X1.3545Y-1.5671
X1.4596Y-1.4285
X1.4596Y-1.4687
X1.4596Y-1.5872
X1.46Y-1.6274
X1.5195Y-2.1065
X1.5195Y-2.1266
X1.5195Y-2.1467
X1.5195Y-2.1671
X1.5195Y-2.1876
X1.5195Y-2.2081
X1.5439Y-2.1065
X1.5439Y-2.1266
X1.5439Y-2.1467
X1.5439Y-2.1671
X1.5439Y-2.1876
X1.5439Y-2.2081
X1.5482Y-1.4022
X1.5797Y-2.4195
X1.5797Y-2.4419
X1.5801Y-2.3041
X1.5801Y-2.3258
X1.5801Y-2.3486
X1.5801Y-2.399
X1.5864Y-1.4626
X1.5974Y-2.3144
X1.5974Y-2.3368
X1.5974Y-2.3589
X1.5974Y-2.4313
X1.5974Y-2.4533
X1.5978Y-2.4085
X1.6071Y-1.5537
X1.6281Y-1.4419
X1.6451Y-1.6927
X1.6486Y-2.3037
X1.6593Y-2.0388
X1.6659Y-1.4419
X1.7064Y-1.6561
X1.707Y-1.6305
X1.7518Y-2.1262
X1.7518Y-2.1463
X1.7518Y-2.1667
X1.7518Y-2.1872
X1.7713Y-2.049
X1.7762Y-2.1262
X1.7762Y-2.1463
X1.7762Y-2.1667
X1.7762Y-2.1872
X1.7829Y-1.6463
X1.823Y-1.723
X1.8317Y-2.3982
X1.8317Y-2.4203
X1.8317Y-2.4435
X1.8321Y-2.3037
X1.8321Y-2.3258
X1.8321Y-2.349
X1.8494Y-2.4317
X1.8494Y-2.4537
X1.8498Y-2.3372
X1.8498Y-2.3593
X1.8498Y-2.4085
X1.8502Y-2.314
X1.8632Y-1.6841
X1.8659Y-1.8086
X1.8663Y-1.1884
X1.8667Y-1.3203
X1.8915Y-1.7435
X1.9014Y-2.3037
X1.9014Y-2.3258
X1.9014Y-2.349
X1.9014Y-2.3986
X1.9014Y-2.4207
X1.9014Y-2.4439
X1.9101Y-2.1152
X1.9191Y-2.3372
X1.9191Y-2.3593
X1.9191Y-2.4321
X1.9191Y-2.4541
X1.9195Y-2.314
X1.9195Y-2.4089
X1.9289Y-1.3522
X1.9296Y-1.2207
X1.9644Y-1.5584
X1.9644Y-1.849
X1.9726Y-2.3022
X1.9841Y-1.575
X2.0038Y-1.5582
X2.0038Y-1.8494
X2.0144Y-1.9234
X2.0234Y-1.575
X2.0319Y-1.3195
X2.0321Y-1.1884
X2.0431Y-1.5584
X2.0553Y-1.9238
X2.0628Y-1.575
X2.0628Y-1.8494
X2.077Y-2.1262
X2.077Y-2.1463
X2.077Y-2.1667
X2.077Y-2.1872
X2.1014Y-2.1262
X2.1014Y-2.1463
X2.1014Y-2.1667
X2.1014Y-2.1872
X2.1435Y-1.5986
X2.153Y-2.3037
X2.153Y-2.3258
X2.153Y-2.349
X2.1533Y-2.3982
X2.1533Y-2.4203
X2.1533Y-2.4435
X2.1638Y-1.5541
X2.1663Y-1.6439
X2.1707Y-2.3372
X2.1707Y-2.3593
X2.1711Y-2.314
X2.1711Y-2.4317
X2.1711Y-2.4537
X2.1715Y-2.4085
X2.1763Y-1.7041
X2.1789Y-1.7624
X2.1809Y-1.599
X2.2108Y-1.6998
X2.2112Y-1.4813
X2.2112Y-1.7821
X2.2122Y-1.4558
X2.2222Y-2.3982
X2.2222Y-2.4203
X2.2222Y-2.4435
X2.2226Y-2.3041
X2.2226Y-2.3262
X2.2226Y-2.3494
X2.2315Y-2.1152
X2.24Y-2.4317
X2.24Y-2.4537
X2.2404Y-2.3376
X2.2404Y-2.3596
X2.2404Y-2.4085
X2.2407Y-2.3144
X2.2486Y-1.8191
X2.251Y-1.6195
X2.29Y-1.6616
X2.2904Y-1.6241
X2.2904Y-1.74
X2.2907Y-1.7821
X2.2963Y-2.3041
X2.319Y-1.7721
X2.3288Y-1.2541
X2.3914Y-1.2868
X2.397Y-1.6526
X2.4018Y-2.1266
X2.4018Y-2.1467
X2.4018Y-2.1671
X2.4018Y-2.1876
X2.4197Y-2.0494
X2.4262Y-2.1266
X2.4262Y-2.1467
X2.4262Y-2.1671
X2.4262Y-2.1876
X2.453Y-1.425
X2.4618Y-1.5586
X2.4624Y-1.6829
X2.4624Y-1.7084
X2.4624Y-1.734
X2.4746Y-2.3033
X2.4746Y-2.3254
X2.4746Y-2.3486
X2.4746Y-2.3982
X2.4746Y-2.4203
X2.4746Y-2.4435
X2.4923Y-2.3368
X2.4923Y-2.3589
X2.4923Y-2.4317
X2.4923Y-2.4537
X2.4927Y-2.3136
X2.4927Y-2.4085
X2.4941Y-1.2541
X2.5065Y-1.4813
X2.5431Y-2.7478
X2.5844Y-1.7722
X2.5844Y-1.81
X2.5864Y-1.5569
X2.5967Y-1.8691
X2.6242Y-1.5565
X2.6246Y-1.81
X2.625Y-1.3628
X2.625Y-1.403
X2.6344Y-1.8691
X2.6376Y-2.7478
X2.6659Y-1.403
X2.6742Y-1.5314
X2.6888Y-2.8242
X2.7136Y-1.8979
X2.7211Y-1.0112
X2.7726Y-1.9737
X2.773Y-1.0878
X2.7927Y-1.9896
X2.8045Y-1.0878
X2.8116Y-1.5321
X2.836Y-1.0878
X2.8362Y-2.002
X2.8364Y-2.0423
X2.8427Y-1.8679
X2.8486Y-2.7478
X2.8648Y-1.5675
X2.8648Y-1.6053
X2.8675Y-1.0878
X2.8785Y-2.0022
X2.8801Y-2.7478
X2.8805Y-1.8679
X2.8809Y-1.8274
X2.8904Y-1.6608
X2.8904Y-1.6864
X2.8904Y-1.712
X2.8994Y-1.088
X2.9049Y-1.5675
X2.9105Y-1.7616
X2.9108Y-1.801
X2.9116Y-2.7478
X2.9286Y-1.7419
X2.9286Y-1.7813
X2.9286Y-1.8207
X2.9368Y-2.1053
X2.9368Y-2.1254
X2.9368Y-2.1455
X2.9368Y-2.1659
X2.9368Y-2.1864
X2.9368Y-2.2069
X2.9494Y-1.0108
X2.9612Y-2.1053
X2.9612Y-2.1254
X2.9612Y-2.1455
X2.9612Y-2.1659
X2.9612Y-2.1864
X2.9612Y-2.2069
X2.9719Y-1.527
X2.9967Y-2.3986
X2.9967Y-2.4207
X2.9967Y-2.4439
X2.997Y-2.3037
X2.997Y-2.3258
X2.997Y-2.349
X3.0108Y-1.4876
X3.0144Y-2.4321
X3.0144Y-2.4541
X3.0148Y-2.3372
X3.0148Y-2.3593
X3.0148Y-2.4089
X3.0152Y-2.314
X3.0182Y-1.6386
X3.0182Y-1.6108
X3.0183Y-1.8404
X3.0438Y-1.5911
X3.0569Y-1.0112
X3.0659Y-2.3018
X3.0837Y-2.0203
X3.09Y-1.653
X3.1091Y-1.0878
X3.1406Y-1.0878
X3.1707Y-2.1262
X3.1707Y-2.1463
X3.1707Y-2.1667
X3.1707Y-2.1872
X3.172Y-1.0878
X3.188Y-2.0478
X3.1951Y-2.1262
X3.1951Y-2.1463
X3.1951Y-2.1667
X3.1951Y-2.1872
X3.2037Y-1.0876
X3.2486Y-2.3037
X3.2486Y-2.3258
X3.2486Y-2.349
X3.2486Y-2.3986
X3.2486Y-2.4207
X3.2486Y-2.4439
X3.2553Y-1.0112
X3.2663Y-1.8051
X3.2663Y-2.3372
X3.2663Y-2.3593
X3.2663Y-2.4321
X3.2663Y-2.4541
X3.2667Y-2.314
X3.2667Y-2.4089
X3.277Y-1.6817
X3.3081Y-1.7407
X3.3183Y-2.3037
X3.3183Y-2.3258
X3.3183Y-2.349
X3.3183Y-2.3986
X3.3183Y-2.4207
X3.3183Y-2.4439
X3.3273Y-2.1152
X3.336Y-2.3372
X3.336Y-2.3593
X3.336Y-2.4321
X3.336Y-2.4541
X3.3364Y-2.314
X3.3364Y-2.4089
X3.3616Y-1.0112
X3.3813Y-1.8559
X3.3821Y-1.5746
X3.39Y-2.3018
X3.4014Y-1.2967
X3.4014Y-1.3344
X3.4214Y-1.5749
X3.4214Y-1.8559
X3.4297Y-1.9234
X3.4522Y-1.2724
X3.4522Y-1.362
X3.4608Y-1.5746
X3.4711Y-1.9234
X3.4805Y-1.8553
X3.4896Y-1.288
X3.4951Y-1.0112
X3.4951Y-2.1266
X3.4951Y-2.1467
X3.4951Y-2.1671
X3.4951Y-2.1876
X3.5195Y-2.1266
X3.5195Y-2.1467
X3.5195Y-2.1671
X3.5195Y-2.1876
X3.527Y-1.2724
X3.527Y-1.362
X3.5608Y-1.5974
X3.5703Y-2.3037
X3.5703Y-2.3258
X3.5703Y-2.349
X3.5703Y-2.3982
X3.5703Y-2.4203
X3.5703Y-2.4435
X3.5874Y-1.6423
X3.588Y-2.3372
X3.588Y-2.3593
X3.588Y-2.4317
X3.588Y-2.4537
X3.5884Y-2.314
X3.5884Y-2.4085
X3.5937Y-1.7014
X3.5943Y-1.7605
X3.5959Y-1.5974
X3.6175Y-1.2278
X3.6183Y-1.2671
X3.6281Y-1.7801
X3.6285Y-1.3738
X3.6289Y-1.6994
X3.6289Y-1.8191
X3.6396Y-2.3986
X3.6396Y-2.4207
X3.6396Y-2.4439
X3.64Y-2.3037
X3.64Y-2.3258
X3.64Y-2.349
X3.6486Y-2.1152
X3.6573Y-2.4321
X3.6573Y-2.4541
X3.6577Y-2.3372
X3.6577Y-2.3593
X3.6577Y-2.4089
X3.6581Y-2.314
X3.6687Y-1.6191
X3.6687Y-1.6596
X3.7089Y-1.6239
X3.7089Y-1.74
X3.7148Y-2.3018
X3.74Y-1.2128
X3.7585Y-1.3557
X3.7986Y-1.375
X3.8207Y-2.1262
X3.8207Y-2.1463
X3.8207Y-2.1667
X3.8207Y-2.1872
X3.8352Y-1.4365
X3.8382Y-2.049
X3.8451Y-2.1262
X3.8451Y-2.1463
X3.8451Y-2.1667
X3.8451Y-2.1872
X3.8813Y-1.6372
X3.8813Y-1.6789
X3.8813Y-1.7211
X3.8815Y-1.5953
X3.8915Y-2.3041
X3.8915Y-2.3262
X3.8915Y-2.3494
X3.8915Y-2.3986
X3.8915Y-2.4207
X3.8915Y-2.4439
X3.9093Y-2.3376
X3.9093Y-2.3596
X3.9093Y-2.4321
X3.9093Y-2.4541
X3.9096Y-2.3144
X3.9096Y-2.4089
X4.0388Y-1.5423
X4.0388Y-1.5699
X4.0388Y-1.5974
X4.0388Y-1.6526
X4.0388Y-1.7352
X4.0388Y-1.7904
T3
X3.7104Y-1.3575
X3.7593Y-1.2697
T4
X1.3935Y-1.6321
T7
X1.3187Y-1.1498
X1.3191Y-2.6821
X4.0226Y-1.151
X4.0226Y-2.6817
T5
G00X1.1913Y-1.3675
M15
G01X1.2228Y-1.3675
M16
G05
G00X1.1913Y-1.7077
M15
G01X1.2228Y-1.7077
M16
G05
G00X1.3496Y-1.3675
M15
G01X1.3929Y-1.3675
M16
G05
G00X1.3496Y-1.7077
M15
G01X1.3929Y-1.7077
M16
G05
T6
G00X1.335Y-2.0907
M15
G01X1.2366Y-2.0907
M16
G05
G00X1.335Y-2.2876
M15
G01X1.2366Y-2.2876
M16
G05
T0
M30
